<svg width="39" height="32" viewBox="0 0 39 32" fill="none" xmlns="http://www.w3.org/2000/svg">
<path d="M19.556 31.506C19.109 31.506 18.662 31.337 18.322 30.997L3.8 16.475C2.178 14.853 1.284 12.694 1.284 10.4C1.284 8.10603 2.178 5.94703 3.8 4.32503C5.422 2.70303 7.581 1.80903 9.875 1.80903C12.169 1.80903 14.328 2.70303 15.95 4.32503L19.556 7.93103L23.425 4.06203H23.437C25.024 2.60603 27.071 1.80603 29.24 1.80603C31.534 1.80603 33.693 2.70003 35.315 4.32203C36.937 5.94403 37.831 8.10303 37.831 10.397C37.831 12.691 36.937 14.85 35.315 16.472L20.79 30.997C20.449 31.338 20.002 31.506 19.556 31.506ZM9.875 3.58703C8.056 3.58703 6.344 4.29603 5.056 5.58403C3.768 6.87203 3.062 8.58103 3.062 10.4C3.062 12.219 3.771 13.931 5.059 15.219L19.559 29.719L34.059 15.219C35.347 13.932 36.056 12.222 36.056 10.4C36.056 8.58103 35.347 6.86903 34.059 5.58103C32.771 4.29303 31.062 3.58403 29.24 3.58403C27.421 3.58403 25.709 4.29303 24.421 5.58103L19.555 10.447L14.689 5.58103C13.402 4.29703 11.692 3.58703 9.873 3.58703H9.875Z" fill="black"/>
</svg>
