<svg width="37" height="31" viewBox="0 0 37 31" fill="none" xmlns="http://www.w3.org/2000/svg">
<path d="M18.556 30.506C18.109 30.506 17.662 30.337 17.322 29.997L2.8 15.475C1.178 13.853 0.283997 11.694 0.283997 9.40003C0.283997 7.10603 1.178 4.94703 2.8 3.32503C4.422 1.70303 6.581 0.80903 8.875 0.80903C11.169 0.80903 13.328 1.70303 14.95 3.32503L18.556 6.93103L22.425 3.06203H22.437C24.024 1.60603 26.071 0.80603 28.24 0.80603C30.534 0.80603 32.693 1.70003 34.315 3.32203C35.937 4.94403 36.831 7.10303 36.831 9.39703C36.831 11.691 35.937 13.85 34.315 15.472L19.79 29.997C19.449 30.338 19.002 30.506 18.556 30.506Z" fill="black"/>
</svg>
